<svg xmlns="http://www.w3.org/2000/svg" xmlns:xlink="http://www.w3.org/1999/xlink" version="1.1" x="0px" y="0px" viewBox="0 0 100 100" enable-background="new 0 0 100 100" xml:space="preserve"><path d="M63.128,46.541c-1.23,1.351-2.488,1.831-3.367,1.992c-0.346-0.222-0.726-0.364-1.133-0.398  c-1.898-0.157-3.624,1.992-3.857,4.8c-0.232,2.808,1.117,5.211,3.015,5.369c1.898,0.157,3.624-1.992,3.857-4.8  c0.071-0.853-0.007-1.667-0.199-2.394C64.274,49.667,63.128,46.541,63.128,46.541z"></path><path d="M92.228,72.966c-0.269-7.708,0.164-14.955,0.51-19.18c0.05-0.209,0.085-0.425,0.103-0.65  c0.045-0.539,0.076-1.069,0.097-1.592c0.095-0.979,0.023-1.577,0.023-1.577c-0.06-6.822-2.33-12.108-6.772-15.736  c-0.426-0.348-0.875-0.678-1.339-0.995c0.651-5.473-0.475-11.72-3.227-15.682c-0.389-0.56-0.726-1.05-1.019-1.476  c-1.646-2.393-1.988-2.891-2.924-2.969c-0.43-0.036-0.847,0.099-1.175,0.379c-0.582,0.496-0.631,1.153-0.694,1.984  c-0.134,1.779-0.414,5.48-4.641,8.926c-1.665,1.357-2.915,2.691-3.853,3.965c0,0,0,0,0,0c-0.652-0.035-1.302-0.061-1.948-0.078  c0.028-1.54-0.142-2.966-0.498-4.098c-0.551-1.753,0.174-4.217,0.756-6.196c0.634-2.155,1.092-3.712,0.22-4.878  c-0.248-0.332-0.827-0.889-1.91-0.889c-0.698,0-1.55,0.231-2.682,0.726c-4.74,2.072-8.798,6.666-11.317,11.497c0,0,0,0,0,0  c-2.733-3.248-5.735-5.657-8.105-5.853c-0.79-0.065-1.526,0.118-2.126,0.515c-1.156,0.764-2.296,2.72-0.837,11.006  c0.12,0.679,0.254,1.371,0.397,2.066c-5.48,2.381-11.195,5.884-16.573,10.248C12.825,50.437,6.602,59.22,6.048,65.923  C5.494,72.604,8.1,78.856,13.383,83.528c4.909,4.34,11.769,7.075,19.316,7.7c1.507,0.125,6.873,0.358,12.683-1.874  c3.964-1.523,7.202-3.814,9.691-6.834c1.674,1.488,3.384,3.371,4.688,5.595c1.363,2.326,2.124,4.726,2.288,7.181l2.988-0.017  c-0.209-3.393-1.359-6.709-3.425-9.813c-1.405-2.111-3.097-3.924-4.78-5.397c-0.809-0.708-1.615-1.336-2.387-1.881  c-0.534,0.894-1.114,1.711-1.73,2.455c-6.905,8.346-18.294,7.702-19.767,7.581c-6.903-0.571-13.142-3.041-17.567-6.954  c-5.836-5.16-6.662-11.058-6.328-15.097c0.481-5.812,6.343-14.012,15.448-21.4c5.009-4.064,10.261-7.345,15.253-9.606  c0,0,0-0.001,0-0.001c0.713,2.873,1.617,5.927,2.325,7.47C42.891,44.402,44.08,46,45.495,46c0,0,0.013,0,0.013,0  c1.726,0,3.263-1.577,4.608-2.632c0.57-0.447,1.169-1.205,1.607-1.419c0.332-0.162,0.785-0.424,1.263-0.58  c1.528-0.499,4.708-1.599,3.88-4.957c-0.307-1.247-0.702-2.017-1.083-2.737c-0.131-0.248-0.267-0.516-0.401-0.797  c-0.203-0.426-0.418-0.861-0.645-1.291c3.288-0.203,7.039-0.394,10.877-0.274c-0.983,2.316-0.999,4.264-0.815,5.542  c0.375,2.613,1.908,4.919,4.105,6.295c-1.919,2.372-4.579,8.589,0.396,22.965c0.028,0.086,0.683,2.128-0.451,4.256  c-1.02,1.914-3.182,3.342-6.425,4.246c-0.708,0.197-1.17,0.876-1.095,1.606c0.075,0.731,0.66,1.312,1.399,1.35  c0.148,0.01,3.685,0.227,7.776-1.377c3.132-1.228,7.092-3.749,9.691-8.909c0.666,3.632-0.118,10.016-9.488,17.621  c-3.542,2.875-5.135,6.411-4.713,10.363l3.036-0.017c-0.021-0.146-0.038-0.293-0.051-0.439c-0.265-2.893,0.923-5.368,3.629-7.565  c6.898-5.599,10.516-11.441,10.751-17.364c0.182-4.587-1.842-7.462-1.928-7.582c-0.335-0.466-0.905-0.701-1.471-0.608  c-0.566,0.094-1.03,0.501-1.196,1.051c-1.64,5.416-4.768,8.361-7.814,9.959c0.22-0.315,0.419-0.641,0.596-0.98  c1.725-3.301,0.654-6.462,0.609-6.591c-5.275-15.245-1.286-19.81-0.43-20.568c0.12-0.019,0.234-0.056,0.344-0.103  c0.723,0.196,1.428,0.326,2.109,0.382c3.595,0.298,6.641-1.387,8.577-4.744c0.613-1.063,1.098-2.279,1.462-3.589c0,0,0,0,0,0  c0.022,0.018,0.046,0.035,0.068,0.053c4.033,3.294,5.885,8.122,5.647,14.72c-0.053,0.534-0.114,1.177-0.179,1.925l-0.305,4.138  c-0.599,9.671-0.838,26.295,3.267,37.769l3.192-0.018C93.805,89.779,92.555,82.321,92.228,72.966z M41.72,28.841  c-0.772-4.708-0.506-6.731-0.28-7.249c0.036-0.004,0.084-0.005,0.145,0c0.85,0.07,2.249,0.963,3.835,2.454  C43.658,25.057,42.488,26.962,41.72,28.841z M42.452,32.612c0.496-2.244,1.712-6.122,4.311-7.203  c1.375,1.492,2.809,3.352,4.103,5.456c-3.431,1.263-5.672,4.651-6.947,7.279C43.411,36.541,42.894,34.597,42.452,32.612z   M52.051,38.387c-0.555,0.181-1.128,0.369-1.648,0.623c-0.725,0.354-1.443,0.916-2.136,1.46c-0.772,0.605-1.939,1.52-2.486,1.474  c-0.173-0.014-0.503-0.309-0.863-1.094c-0.033-0.071-0.067-0.152-0.1-0.229c0.929-2.362,3.184-6.968,6.973-8.162  c0.302,0.553,0.594,1.118,0.869,1.696c0.162,0.341,0.32,0.639,0.46,0.902c0.349,0.659,0.602,1.134,0.82,2.02  C54.051,37.531,54.097,37.719,52.051,38.387z M62.734,17.142c-0.698,2.372-1.566,5.325-0.739,7.953  c0.27,0.86,0.394,1.964,0.367,3.165c0,0,0,0,0,0c-3.359,0.027-6.547,0.228-9.329,0.406c0,0.001,0.013,0.001,0.013,0.002  c-0.335-0.523-0.149-1.039-1.028-1.547c0,0,0,0.001,0,0.001c1.759-4.704,6.068-9.492,10.456-11.41  c0.3-0.131,0.539-0.226,0.737-0.295C63.094,15.937,62.893,16.601,62.734,17.142z M80.14,38.597  c-1.358,2.354-3.281,3.446-5.716,3.245c-0.956-0.079-2.002-0.356-3.11-0.823c-1.885-0.795-3.238-2.555-3.53-4.594  c-0.445-3.103,1.434-6.543,5.291-9.688c3.596-2.932,4.89-6.09,5.397-8.437c0.206,0.299,0.43,0.624,0.675,0.976  C82.555,24.182,83.038,33.572,80.14,38.597z"></path><path d="M21.122,65.97c2.328,1.612-1.791,4.522-2.686,3.761S18.794,64.358,21.122,65.97z"></path></svg>
